<svg width="258" height="52" viewBox="0 0 258 52" fill="none" xmlns="http://www.w3.org/2000/svg">
<g clip-path="url(#clip0_21_633)">
<path d="M95.3669 32.8239C95.1687 33.7362 94.9862 34.6509 94.8194 35.568L94.388 38.061C91.7294 38.4589 88.8701 38.7707 85.8103 38.9963C82.7504 39.222 80.1413 39.336 77.9829 39.3385C75.5928 39.3544 73.2099 39.0745 70.888 38.505C68.7193 37.9695 66.6888 36.977 64.9314 35.5935C63.2178 34.2674 61.8433 32.5508 60.9217 30.5857C59.9743 28.458 59.5076 26.1464 59.5549 23.8163C59.5243 21.4244 59.9769 19.051 60.8854 16.8396C61.7597 14.7578 63.0965 12.9042 64.7936 11.4205C66.5259 9.89947 68.5598 8.76449 70.7611 8.09041C73.096 7.37165 75.5262 7.01332 77.9685 7.0277C80.2161 7.02077 82.4517 7.35576 84.5994 8.02126C86.6327 8.63243 88.5069 9.68619 90.0883 11.1075C91.6198 12.4983 92.8257 14.2122 93.6194 16.1262C94.4357 18.0501 94.8551 20.1202 94.8521 22.2114C94.8523 23.264 94.7453 24.314 94.533 25.3449C94.3237 26.343 94.0177 27.3181 93.6194 28.2564C93.2664 29.1134 92.8163 29.9267 92.278 30.6803C91.8174 31.3189 91.3018 31.9156 90.7372 32.4636C90.2151 32.9707 89.5819 33.5275 88.8375 34.1341C90.2876 33.9667 91.3281 33.8187 91.959 33.6901C92.5898 33.5615 93.7258 33.2728 95.3669 32.8239ZM77.6494 11.9118C75.5568 11.8851 73.4947 12.4176 71.6747 13.4549C69.9236 14.4526 68.5153 15.9603 67.636 17.7785C66.7351 19.594 66.2683 21.5953 66.2728 23.6234C66.2728 25.909 66.7357 27.85 67.6614 29.4465C68.5526 31.013 69.886 32.2794 71.4934 33.0859C73.1546 33.9256 74.992 34.3537 76.8518 34.3343C78.8677 34.3497 80.8542 33.8486 82.6235 32.8785C84.3463 31.9479 85.732 30.4945 86.5825 28.7259C87.4882 26.8409 87.9438 24.7698 87.913 22.6772C87.9303 21.1727 87.6924 19.6761 87.2097 18.2517C86.7747 16.9794 86.0808 15.8119 85.1722 14.8233C84.245 13.8446 83.1028 13.0968 81.8368 12.6397C80.4967 12.1436 79.0777 11.8969 77.6494 11.9118Z" fill="white"/>
<path d="M105.377 38.7925L102.708 30.673L98.8763 19.5109L97.4261 15.533C98.5935 15.5658 99.6594 15.5803 100.631 15.5803C101.603 15.5803 102.527 15.5803 103.531 15.533L108.799 32.6747L114.843 15.533C115.981 15.567 117.069 15.5828 118.106 15.5803C119.193 15.5803 120.241 15.5803 121.227 15.533L125.143 30.6512C125.186 30.8768 125.346 31.5501 125.617 32.6638L126.143 31.1534C126.143 31.1243 126.303 30.764 126.575 30.0616L130.109 21.0722L132.208 15.5148C133.361 15.5476 134.358 15.5621 135.192 15.5621C135.874 15.5621 136.906 15.5464 138.288 15.5148L132.027 29.876C130.676 32.9598 129.424 35.9259 128.271 38.7744C126.995 38.7428 125.992 38.727 125.262 38.727C124.504 38.727 123.348 38.727 121.8 38.7744L117.623 22.124C117.394 22.716 116.939 23.9813 116.26 25.9199L111.638 38.7744C110.347 38.7428 109.367 38.727 108.698 38.727C107.973 38.7392 106.866 38.761 105.377 38.7925Z" fill="white"/>
<path d="M163.438 38.7926C162.176 38.761 161.196 38.7452 160.498 38.7452C159.741 38.7452 158.693 38.761 157.354 38.7926L157.557 34.811C157.027 35.5183 156.452 36.1905 155.835 36.8236C155.303 37.3383 154.706 37.7812 154.059 38.1411C153.342 38.548 152.572 38.8518 151.771 39.0437C150.94 39.2408 150.088 39.3397 149.234 39.3385C147.828 39.3486 146.434 39.0776 145.133 38.5414C143.896 38.0363 142.783 37.2677 141.87 36.2886C140.962 35.2994 140.285 34.1196 139.887 32.8348C139.457 31.4831 139.239 30.0722 139.242 28.6531C139.243 26.6576 139.626 24.6808 140.369 22.8301C141.036 21.0709 142.104 19.493 143.487 18.2226C144.78 17.0596 146.316 16.2027 147.983 15.715C149.73 15.2178 151.539 14.9727 153.356 14.9871C154.926 15.003 156.492 15.1331 158.043 15.3765C158.154 13.3967 158.211 11.3162 158.214 9.13494V7.57727C159.642 7.61124 160.737 7.62701 161.498 7.62458C162.484 7.62458 163.594 7.60881 164.826 7.57727C164.493 11.4593 164.179 16.7316 163.884 23.3942C163.589 30.0567 163.44 35.1895 163.438 38.7926ZM157.811 19.7184C156.742 19.4222 155.639 19.2681 154.53 19.2598C153.365 19.254 152.205 19.4245 151.09 19.7657C150.001 20.098 149.007 20.6856 148.189 21.4798C147.307 22.349 146.639 23.4134 146.239 24.5879C145.802 25.7595 145.572 26.9983 145.557 28.2492C145.545 29.3557 145.758 30.4531 146.185 31.4737C146.581 32.4259 147.261 33.2319 148.131 33.7811C149.022 34.3506 150.059 34.6454 151.115 34.6291C151.897 34.6397 152.672 34.4873 153.392 34.1814C154.105 33.8644 154.742 33.3964 155.259 32.8094C155.874 32.1064 156.356 31.2976 156.684 30.4219C157.132 29.1694 157.412 27.8621 157.514 26.535C157.62 25.3437 157.719 23.0715 157.811 19.7184Z" fill="white"/>
<path d="M169.039 38.7926L169.699 27.9253L169.884 21.6145C169.913 20.3189 169.927 19.0123 169.927 17.7021C169.927 17.4741 169.913 16.7462 169.884 15.5185C171.293 15.5525 172.334 15.5682 173.005 15.5658C173.776 15.5658 174.801 15.55 176.08 15.5185L175.967 18.743C176.407 18.088 176.902 17.4719 177.447 16.9015C177.859 16.4963 178.322 16.1465 178.824 15.8606C179.357 15.5639 179.928 15.3411 180.521 15.1982C181.148 15.045 181.79 14.968 182.435 14.9689C183.066 14.9715 183.693 15.0485 184.306 15.1982C184.306 16.6176 184.374 18.4167 184.509 20.5955C183.716 20.3672 182.897 20.2449 182.073 20.2315C181.275 20.2157 180.482 20.3515 179.734 20.6319C179.052 20.9044 178.435 21.3172 177.922 21.8438C177.356 22.4204 176.904 23.0981 176.587 23.8418C176.258 24.6383 176.043 25.4777 175.949 26.3348C175.833 27.1282 175.733 28.4857 175.648 30.4074C175.564 32.329 175.524 34.219 175.529 36.0776C175.529 36.8054 175.552 37.7056 175.598 38.778C174.442 38.7465 173.385 38.7307 172.425 38.7307C171.466 38.7307 170.337 38.7513 169.039 38.7926Z" fill="white"/>
<path d="M188.928 20.6464C189.142 19.5546 189.273 18.7794 189.327 18.339C189.382 17.8986 189.476 17.2253 189.614 16.3264C191.416 15.8861 193.241 15.5423 195.081 15.2964C196.599 15.1025 198.129 15.0028 199.66 14.998C201.212 14.984 202.76 15.1798 204.26 15.5803C205.5 15.8858 206.63 16.5324 207.523 17.4473C208.313 18.299 208.709 19.5255 208.709 21.1268C208.709 21.9954 208.588 24.2106 208.346 27.7724C208.104 31.3342 207.961 35.0124 207.915 38.8071C206.762 38.7743 205.696 38.7598 204.724 38.7598C203.753 38.7598 202.709 38.7598 201.461 38.8071C201.66 36.9607 201.82 34.8256 201.944 32.4017L202.245 26.7097C201.818 26.9991 201.376 27.2652 200.921 27.5067C200.589 27.6714 200.246 27.8136 199.895 27.9325C199.533 28.0599 198.844 28.2601 197.887 28.5257C196.93 28.7914 196.161 29.0243 195.585 29.2245C195.046 29.405 194.523 29.6302 194.022 29.8978C193.593 30.1241 193.198 30.4095 192.847 30.7458C192.553 31.0229 192.317 31.3572 192.155 31.7284C192.008 32.0798 191.934 32.4575 191.937 32.8384C191.923 33.4393 192.121 34.0258 192.496 34.4944C192.855 34.9515 193.342 35.2899 193.895 35.4661C194.538 35.6611 195.207 35.7544 195.878 35.7427C196.393 35.7399 196.906 35.701 197.415 35.6262C198.156 35.4992 198.883 35.308 199.591 35.0548C199.272 35.9235 198.899 37.2191 198.474 38.9417C197.386 39.1274 196.538 39.2402 195.9 39.3057C195.262 39.3712 194.671 39.3712 194.124 39.3712C192.517 39.4237 190.916 39.1604 189.411 38.596C188.237 38.1263 187.271 37.2494 186.688 36.1248C186.125 35.0775 185.825 33.9082 185.814 32.7183C185.815 32.0556 185.93 31.398 186.155 30.7749C186.384 30.133 186.724 29.5367 187.159 29.0134C187.657 28.4249 188.232 27.9059 188.867 27.4703C189.808 26.8527 190.828 26.3631 191.898 26.0145C193.616 25.4412 195.366 24.9709 197.14 24.6061C197.72 24.486 198.318 24.3368 198.953 24.1621C199.462 24.0269 199.961 23.8554 200.446 23.6489C200.805 23.4897 201.133 23.2679 201.414 22.9938C201.668 22.7578 201.873 22.4748 202.02 22.1604C202.146 21.8801 202.211 21.5762 202.212 21.2687C202.225 20.708 202.017 20.1649 201.632 19.7584C201.222 19.3348 200.7 19.038 200.127 18.9031C199.46 18.7369 198.774 18.6562 198.086 18.6629C195.326 18.6508 192.273 19.3119 188.928 20.6464Z" fill="white"/>
<path d="M213.465 38.7926C213.811 35.3303 214.101 31.4421 214.335 27.1282C214.57 22.8143 214.703 18.9492 214.734 15.533C216.13 15.5658 217.25 15.5803 218.084 15.5803C219.075 15.5803 220.124 15.5646 221.231 15.533L220.981 19.4199C221.362 18.8623 221.777 18.3276 222.221 17.8186C222.63 17.3789 223.089 16.9881 223.587 16.654C224.138 16.274 224.735 15.967 225.364 15.7405C226.054 15.4964 226.763 15.3125 227.485 15.1909C228.293 15.0505 229.112 14.9811 229.932 14.9835C231.245 14.9775 232.552 15.1513 233.818 15.5003C234.94 15.7778 235.971 16.3406 236.813 17.1344C237.524 17.7991 238.044 18.644 238.318 19.5801C238.564 20.4972 238.686 21.4435 238.68 22.3933C238.68 22.8046 238.658 23.4597 238.611 24.3623L238.14 34.3561C238.082 35.7439 238.044 37.2228 238.028 38.7926C236.819 38.761 235.793 38.7452 234.95 38.7452C233.794 38.7452 232.63 38.761 231.458 38.7926C231.579 37.463 231.731 35.1495 231.915 31.8522C232.099 28.5549 232.191 26.3712 232.191 25.3012C232.233 24.2992 232.038 23.3013 231.621 22.3897C231.234 21.6513 230.613 21.0635 229.856 20.7192C229.049 20.3372 228.167 20.1419 227.274 20.1478C226.401 20.144 225.537 20.3238 224.737 20.6755C223.94 21.0245 223.233 21.5495 222.667 22.2114C222.028 22.9551 221.548 23.8221 221.256 24.759C220.894 25.829 220.647 27.5904 220.484 30.0434C220.329 32.2271 220.209 35.1471 220.122 38.8035C218.949 38.7719 217.893 38.7562 216.953 38.7562C216.013 38.7562 214.85 38.7683 213.465 38.7926Z" fill="white"/>
<path d="M257.706 34.0104C257.523 34.8523 257.234 36.4075 256.84 38.6761C255.848 38.9161 254.843 39.0996 253.831 39.2257C253.15 39.2989 252.467 39.3365 251.782 39.3385C250.767 39.3509 249.753 39.2435 248.762 39.0182C247.943 38.8425 247.185 38.4519 246.565 37.8863C246.007 37.3756 245.6 36.7192 245.391 35.9902C245.186 35.2569 245.084 34.4988 245.086 33.7374C245.086 33.5409 245.086 33.2716 245.108 32.9367C245.13 32.6019 245.184 31.5174 245.289 29.6904L245.811 20.1769H242.548C242.623 19.2598 242.691 17.7883 242.751 15.7623H246.185C246.277 14.8767 246.367 13.3749 246.457 11.2567L249.147 10.729C249.712 10.6223 250.8 10.3711 252.41 9.97565C252.301 12.0356 252.238 13.9644 252.221 15.7623H258.022C257.918 17.8198 257.865 19.2913 257.862 20.1769H252.062C251.742 26.3809 251.583 29.9706 251.583 30.946C251.554 31.6866 251.658 32.4263 251.891 33.1296C252.067 33.6162 252.421 34.0172 252.881 34.2506C253.332 34.4753 253.828 34.5924 254.331 34.5927C254.731 34.59 255.131 34.5596 255.527 34.5017C255.923 34.4544 256.659 34.287 257.706 34.0104Z" fill="white"/>
<path d="M25.9 0C19.0309 0 12.4431 2.73929 7.58591 7.61523C2.7287 12.4912 -5.34058e-05 19.1044 -5.34058e-05 26C-5.34058e-05 29.4144 0.669895 32.7953 1.97149 35.9498C3.27309 39.1042 5.18087 41.9705 7.58591 44.3848C12.4431 49.2607 19.0309 52 25.9 52C32.7689 51.999 39.3561 49.2594 44.2131 44.3837C49.0701 39.508 51.7991 32.8953 51.8001 26C51.7991 19.1047 49.0701 12.492 44.2131 7.61629C39.3561 2.74055 32.7689 0.00096499 25.9 0ZM37.7479 40.0554C37.7479 40.0554 37.8458 37.8718 34.989 35.3242C34.8802 35.2259 34.7678 35.1313 34.6518 35.033C33.3694 34.0447 32.0198 33.1472 30.6131 32.3471C25.4795 29.2391 19.3742 25.6433 24.4281 20.7483C24.4281 20.7483 24.1888 23.1576 29.1992 26.7497C30.3339 27.565 31.7768 28.3911 33.1871 29.2973C33.8123 28.0858 34.1404 26.742 34.1443 25.3777C34.1423 23.0874 33.2354 20.8915 31.6226 19.2717C30.0097 17.6519 27.8226 16.7406 25.5411 16.7377C23.2587 16.7396 21.0703 17.6504 19.456 19.2702C17.8418 20.89 16.9336 23.0865 16.9307 25.3777C16.9336 27.4388 17.6692 29.4312 19.005 30.9964C20.3409 32.5616 22.1894 33.5968 24.2178 33.9157C23.5544 32.7038 23.6668 31.3281 25.146 29.6976C25.146 29.7996 25.1967 31.3791 28.2819 33.5664C28.5683 33.7665 28.8802 33.974 29.2246 34.1887C30.4246 34.9348 32.0379 35.6699 33.5062 36.558C36.2434 38.2066 38.4948 40.3939 36.7219 44.2007C36.7205 44.1911 36.7205 44.1813 36.7219 44.1716C36.4866 44.6061 36.1417 44.9709 35.7218 45.2296C35.3019 45.4883 34.8216 45.6317 34.3292 45.6456C33.5864 45.6642 32.8668 45.3859 32.3284 44.872C31.7899 44.3581 31.4768 43.6507 31.4578 42.9051C31.4425 42.2788 31.6362 41.6654 32.0079 41.1623C32.3797 40.6592 32.9083 40.2952 33.5098 40.1282C32.5926 39.5277 31.4143 38.9272 30.1962 38.3085C28.7034 38.8497 27.1282 39.1256 25.5411 39.1237C23.7423 39.1247 21.9609 38.7698 20.2987 38.0795C18.6365 37.3891 17.1262 36.3767 15.8539 35.1002C14.5815 33.8236 13.5722 32.308 12.8836 30.6397C12.195 28.9715 11.8406 27.1834 11.8406 25.3777C11.8401 23.5719 12.1941 21.7837 12.8823 20.1153C13.5704 18.4469 14.5793 16.9309 15.8513 15.6541C17.1233 14.3772 18.6334 13.3644 20.2954 12.6736C21.9574 11.9828 23.7387 11.6275 25.5375 11.6279C29.1679 11.6308 32.6486 13.0809 35.2143 15.6592C37.78 18.2376 39.2208 21.7332 39.2199 25.3777C39.2235 27.9224 38.5205 30.4178 37.1896 32.5837C38.8283 34.509 39.4772 36.8928 37.7479 40.0554Z" fill="white"/>
</g>
<defs>
<clipPath id="clip0_21_633">
<rect width="258" height="52" fill="white"/>
</clipPath>
</defs>
</svg>
